<?xml version="1.0" encoding="UTF-8"?>
<svg width="752pt" height="752pt" version="1.1" viewBox="0 0 752 752" xmlns="http://www.w3.org/2000/svg">
 <path d="m544.12 402.05h-331.51c-13.262 0-23.68-10.418-23.68-23.68 0-13.262 10.418-23.68 23.68-23.68h331.51c13.262 0 23.68 10.418 23.68 23.68 0 13.262-10.418 23.68-23.68 23.68zm0-118.39h-331.51c-13.262 0-23.68-10.418-23.68-23.68 0-13.262 10.418-23.68 23.68-23.68h331.51c13.262 0 23.68 10.418 23.68 23.68 0 13.262-10.418 23.68-23.68 23.68zm-331.5 189.43h331.51c13.262 0 23.68 10.418 23.68 23.68s-10.418 23.68-23.68 23.68h-331.51c-13.262 0-23.68-10.418-23.68-23.68s10.418-23.68 23.68-23.68z" fill-rule="evenodd"/>
</svg>
