<?xml version="1.0" encoding="UTF-8"?>
<svg width="752pt" height="752pt" version="1.1" viewBox="0 0 752 752" xmlns="http://www.w3.org/2000/svg">
 <path d="m516.1 488.48-76.957-76.957c17.758-23.68 25.652-49.332 25.652-78.93 0-35.52-13.812-69.062-39.465-94.715-25.652-25.652-59.199-39.465-94.715-39.465-35.52 0-69.062 13.812-94.715 39.465s-39.465 59.199-39.465 94.715c0 35.52 13.812 69.062 39.465 94.715 25.652 25.652 59.199 39.465 94.715 39.465 29.598 0 57.223-9.8672 78.93-25.652l76.957 76.957c3.9453 3.9453 9.8672 5.918 13.812 5.918 3.9453 0 9.8672-1.9727 13.812-5.918 9.8672-9.8633 9.8672-23.676 1.9727-29.598zm-185.48-63.145c-25.652 0-49.332-9.8672-67.09-27.625-17.762-17.758-25.652-41.438-25.652-67.09 0-25.652 9.8672-49.332 27.625-67.09 17.758-17.762 39.465-25.652 65.117-25.652 25.652 0 49.332 9.8672 67.09 27.625 17.758 17.758 27.625 41.438 27.625 67.09s-9.8672 49.332-27.625 67.09c-17.758 17.762-41.438 25.652-67.09 25.652z"/>
</svg>
