<?xml version="1.0" encoding="UTF-8"?>
<svg width="752pt" height="752pt" version="1.1" viewBox="0 0 752 752" xmlns="http://www.w3.org/2000/svg">
 <defs>
  <clipPath id="a">
   <path d="m139.21 143h473.58v359h-473.58z"/>
  </clipPath>
 </defs>
 <path d="m351.21 512.99c26.035 0 48.352 21.074 48.352 48.352 0 26.035-22.316 47.109-48.352 47.109-26.035 0-48.352-21.074-48.352-47.109 0-27.273 22.316-48.352 48.352-48.352zm0 24.793c-13.637 0-23.555 9.918-23.555 23.555 0 12.398 9.918 22.316 23.555 22.316 12.398 0 23.555-9.918 23.555-22.316 0-13.637-11.156-23.555-23.555-23.555z"/>
 <path d="m501.21 512.99c26.035 0 48.352 21.074 48.352 48.352 0 26.035-22.316 47.109-48.352 47.109s-48.352-21.074-48.352-47.109c0-27.273 22.316-48.352 48.352-48.352zm0 24.793c-12.398 0-23.555 9.918-23.555 23.555 0 12.398 11.156 22.316 23.555 22.316 12.398 0 23.555-9.918 23.555-22.316 0-13.637-11.156-23.555-23.555-23.555z"/>
 <g clip-path="url(#a)">
  <path d="m152.85 143.55 83.062 18.598c4.957 1.2383 7.4375 3.7188 8.6797 8.6797l19.836 94.219h338.45c6.1992 0 11.156 6.1992 9.918 13.637l-45.871 163.64c-1.2383 4.957-4.957 7.4375-9.918 7.4375h-254.15l4.957 27.273h245.47c13.637 0 13.637 24.793 0 24.793h-256.62c-4.957 0-9.918-3.7188-11.156-8.6797l-63.227-308.7-74.383-16.117c-14.875-3.7188-8.6797-27.273 4.957-24.793zm116.54 146.29 27.273 135.13h250.43l37.191-135.13h-314.89z"/>
 </g>
</svg>
